<svg width="284" height="117" viewBox="0 0 284 117" fill="none" xmlns="http://www.w3.org/2000/svg">
<path d="M25.6649 81.4201C35.4026 78.8396 42.428 73.5978 47.9549 67.1176C56.0316 57.6476 56.2505 47.2222 56.3136 36.4148C56.3376 32.3212 56.3136 20.0401 56.3136 24.1338C56.3136 32.3421 56.3394 40.5459 56.5458 48.7531C56.7346 56.2609 56.778 63.7661 56.778 71.2748C56.778 76.6782 56.5583 60.4595 56.9844 55.0653C57.5909 47.3878 59.709 39.9691 61.8087 32.4673C62.2008 31.0667 61.8484 35.3287 61.7829 36.7581C61.5169 42.5664 61.5378 48.8533 58.5839 54.3407C58.0035 55.4189 56.9626 55.9022 58.2485 54.8746C59.3976 53.9564 60.9954 53.0684 62.6601 52.7388C67.2377 51.8324 71.9073 58.1141 74.1663 60.1761C76.5789 62.3782 77.7032 63.1517 80.5643 60.5956C84.9733 56.6568 87.4268 52.1413 87.4268 47.0559C87.4268 45.5959 85.8108 47.6129 85.6209 47.9522C84.856 49.3186 83.9444 53.2177 86.8076 53.8448C90.6461 54.6855 92.3926 48.0356 92.8961 46.4075C93.6886 43.8445 95.5488 45.9519 97.901 46.3312C102.507 47.0741 97.4562 38.3394 101.513 37.3302C108.877 35.4983 111.238 41.134 114.825 44.7294C120.333 50.2503 125.805 40.0523 128.937 37.4065C131.164 35.5254 135.713 40.8861 136.934 41.9261C140.036 44.5676 139.976 42.6147 140.366 39.714C140.488 38.8024 141.117 29.7797 142.042 30.1217C146.754 31.8631 149.638 35.6967 155.226 32.7153C160.285 30.0154 160.743 25.6501 160.798 21.4258C160.81 20.4952 161.702 16.442 160.282 15.9336C157.356 14.8861 154.873 13.232 152.414 11.7001C146.231 7.84912 140.216 4.04525 131.955 2.81348C115.966 0.429385 99.9329 3.45084 86.2142 9.71682C67.6868 18.1792 53.7593 28.8468 39.2865 40.8391C27.9993 50.1918 11.4528 64.4483 4.87118 76.9386C2.9912 80.5064 0.777916 84.8006 2.80729 88.3234C7.68792 96.7956 35.7475 97.4 41.3504 97.5152C75.6919 98.2211 110.007 93.3116 143.9 90.0779C148.177 89.6698 152.491 88.7454 156.773 89.1244C161.815 89.5706 149.123 94.1461 144.7 95.9896C129.77 102.212 113.941 107.359 99.2167 113.839C88.1489 118.71 123.259 106.94 134.845 102.778C172.72 89.1728 209.705 74.3021 246.037 58.5742C253.507 55.3403 260.886 51.9919 268.275 48.6578C272.79 46.6209 276.985 44.1444 281.794 42.5172C281.935 42.4693 282 45.3075 282 45.3777" stroke="url(#paint0_linear_16_28)" stroke-width="3" stroke-linecap="round"/>
<defs>
<linearGradient id="paint0_linear_16_28" x1="2" y1="58.5" x2="282" y2="58.5" gradientUnits="userSpaceOnUse">
<stop stop-color="#43F09F"/>
<stop offset="0.73" stop-color="#00BF8F" stop-opacity="0.7"/>
<stop offset="1" stop-color="#001510"/>
</linearGradient>
</defs>
</svg>
