<svg width="864" height="1385" viewBox="0 0 864 1385" fill="none" xmlns="http://www.w3.org/2000/svg">
<rect width="28" height="1451.89" rx="14" transform="matrix(0.941022 0.338345 -0.345713 0.93834 669.2 6.42505)" fill="url(#paint0_linear_132_18)"/>
<path d="M700.528 60.0029C703.201 52.7477 711.266 48.9868 718.542 51.6029V51.6029C725.818 54.219 729.549 62.2213 726.876 69.4765L259.855 1337.07C257.182 1344.33 249.117 1348.09 241.841 1345.47V1345.47C234.565 1342.86 230.834 1334.85 233.507 1327.6L700.528 60.0029Z" fill="url(#paint1_linear_132_18)"/>
<rect width="28" height="1378.89" rx="14" transform="matrix(0.941022 0.338345 -0.345713 0.93834 608.379 32.9277)" fill="url(#paint2_linear_132_18)"/>
<defs>
<linearGradient id="paint0_linear_132_18" x1="14" y1="0" x2="14" y2="1451.89" gradientUnits="userSpaceOnUse">
<stop stop-color="#43F09F"/>
<stop offset="1" stop-color="#278A5C"/>
</linearGradient>
<linearGradient id="paint1_linear_132_18" x1="725.793" y1="54.21" x2="259.267" y2="1351.74" gradientUnits="userSpaceOnUse">
<stop stop-color="#43F09F"/>
<stop offset="1" stop-color="#278A5C"/>
</linearGradient>
<linearGradient id="paint2_linear_132_18" x1="14" y1="0" x2="14" y2="1378.89" gradientUnits="userSpaceOnUse">
<stop stop-color="#43F09F"/>
<stop offset="1" stop-color="#278A5C"/>
</linearGradient>
</defs>
</svg>
