<svg width="31" height="30" viewBox="0 0 31 30" fill="none" xmlns="http://www.w3.org/2000/svg">
<path fill-rule="evenodd" clip-rule="evenodd" d="M30.5 15C30.5 23.2843 23.7843 30 15.5 30C7.21573 30 0.5 23.2843 0.5 15C0.5 6.71573 7.21573 0 15.5 0C23.7843 0 30.5 6.71573 30.5 15ZM16.0375 11.0737C14.5786 11.6805 11.6627 12.9365 7.28987 14.8417C6.57979 15.124 6.20782 15.4003 6.17396 15.6704C6.11673 16.1269 6.68839 16.3066 7.46684 16.5514C7.57273 16.5847 7.68244 16.6192 7.79492 16.6558C8.5608 16.9047 9.59103 17.196 10.1266 17.2075C10.6124 17.218 11.1547 17.0177 11.7533 16.6067C15.8389 13.8488 17.948 12.4548 18.0804 12.4247C18.1738 12.4035 18.3032 12.3769 18.391 12.4548C18.4787 12.5328 18.47 12.6804 18.4608 12.72C18.4041 12.9614 16.1602 15.0476 14.9989 16.1272C14.6369 16.4638 14.3801 16.7025 14.3276 16.757C14.21 16.8792 14.0902 16.9947 13.975 17.1058C13.2635 17.7917 12.7299 18.306 14.0045 19.146C14.6171 19.5496 15.1072 19.8834 15.5962 20.2164C16.1302 20.5801 16.6629 20.9428 17.352 21.3946C17.5276 21.5097 17.6953 21.6292 17.8586 21.7457C18.4801 22.1887 19.0384 22.5868 19.7282 22.5233C20.1291 22.4864 20.5431 22.1095 20.7533 20.9854C21.2503 18.3289 22.227 12.5731 22.4528 10.2012C22.4726 9.99341 22.4477 9.72746 22.4277 9.61072C22.4077 9.49397 22.366 9.32763 22.2142 9.2045C22.0345 9.05867 21.757 9.02792 21.633 9.0301C21.0688 9.04004 20.2032 9.34102 16.0375 11.0737Z" fill="#4D4D4D"/>
</svg>
