<svg width="45" height="30" viewBox="0 0 45 30" fill="none" xmlns="http://www.w3.org/2000/svg">
<path d="M37.616 2.48684C34.8116 1.33579 31.8043 0.487746 28.66 0.00203748C28.6027 -0.00733654 28.5455 0.0160897 28.516 0.0629432C28.1292 0.678276 27.7008 1.48103 27.4008 2.11199C24.0189 1.65908 20.6543 1.65908 17.3418 2.11199C17.0417 1.467 16.5977 0.678276 16.2092 0.0629432C16.1797 0.0176529 16.1225 -0.00577328 16.0653 0.00203748C12.9227 0.486194 9.91536 1.33424 7.10921 2.48684C7.08492 2.4962 7.0641 2.51184 7.05028 2.53213C1.34605 10.1552 -0.216578 17.5909 0.549994 24.9344C0.553463 24.9703 0.576009 25.0047 0.607227 25.0265C4.37071 27.4988 8.01629 28.9997 11.5942 29.9945C11.6514 30.0102 11.7121 29.9914 11.7485 29.9492C12.5949 28.9154 13.3493 27.8253 13.9962 26.6789C14.0344 26.6117 13.9979 26.5321 13.9199 26.5055C12.7232 26.0995 11.5838 25.6044 10.4877 25.0422C10.401 24.9969 10.394 24.8859 10.4738 24.8328C10.7044 24.6782 10.9352 24.5173 11.1554 24.3549C11.1953 24.3253 11.2508 24.319 11.2976 24.3377C18.4985 27.2786 26.2943 27.2786 33.4102 24.3377C33.4571 24.3175 33.5126 24.3237 33.5542 24.3534C33.7745 24.5158 34.0052 24.6782 34.2376 24.8328C34.3173 24.8859 34.3121 24.9969 34.2254 25.0422C33.1293 25.6153 31.9898 26.0995 30.7914 26.504C30.7134 26.5305 30.6787 26.6117 30.7169 26.6789C31.3776 27.8236 32.1321 28.9138 32.9628 29.9477C32.9975 29.9914 33.0599 30.0102 33.1172 29.9945C36.7124 28.9997 40.358 27.4988 44.1215 25.0265C44.1544 25.0047 44.1752 24.9719 44.1787 24.9359C45.0961 16.446 42.6421 9.07133 37.6732 2.53368C37.6611 2.51184 37.6403 2.4962 37.616 2.48684ZM15.0715 20.463C12.9036 20.463 11.1172 18.6826 11.1172 16.496C11.1172 14.3095 12.8689 12.5291 15.0715 12.5291C17.2914 12.5291 19.0605 14.3252 19.0258 16.496C19.0258 18.6826 17.2741 20.463 15.0715 20.463ZM29.6919 20.463C27.524 20.463 25.7376 18.6826 25.7376 16.496C25.7376 14.3095 27.4893 12.5291 29.6919 12.5291C31.9118 12.5291 33.6808 14.3252 33.6462 16.496C33.6462 18.6826 31.9118 20.463 29.6919 20.463Z" fill="white"/>
</svg>
