<svg width="31" height="30" viewBox="0 0 31 30" fill="none" xmlns="http://www.w3.org/2000/svg">
<g clip-path="url(#clip0_21_308)">
<path fill-rule="evenodd" clip-rule="evenodd" d="M15.3811 0C7.07959 0 0.368652 6.76041 0.368652 15.124C0.368652 21.8094 4.66858 27.4685 10.6337 29.4714C11.3795 29.622 11.6527 29.146 11.6527 28.7456C11.6527 28.395 11.6281 27.1931 11.6281 25.9409C7.45202 26.8425 6.58239 24.138 6.58239 24.138C5.91127 22.3853 4.91687 21.9348 4.91687 21.9348C3.55004 21.0083 5.01643 21.0083 5.01643 21.0083C6.53261 21.1085 7.32819 22.5607 7.32819 22.5607C8.67013 24.8642 10.8325 24.2133 11.7025 23.8126C11.8266 22.836 12.2246 22.16 12.6471 21.7845C9.31636 21.4339 5.81201 20.1319 5.81201 14.3225C5.81201 12.6699 6.40816 11.3178 7.35277 10.2663C7.20373 9.89079 6.68165 8.33804 7.50211 6.25983C7.50211 6.25983 8.76969 5.85912 11.6278 7.81227C12.8515 7.48121 14.1134 7.3128 15.3811 7.31138C16.6486 7.31138 17.9408 7.48685 19.134 7.81227C21.9924 5.85912 23.26 6.25983 23.26 6.25983C24.0805 8.33804 23.5581 9.89079 23.409 10.2663C24.3786 11.3178 24.9501 12.6699 24.9501 14.3225C24.9501 20.1319 21.4458 21.4087 18.0901 21.7845C18.6371 22.2602 19.1091 23.1615 19.1091 24.5888C19.1091 26.617 19.0845 28.2447 19.0845 28.7453C19.0845 29.146 19.358 29.622 20.1035 29.4717C26.0687 27.4682 30.3686 21.8094 30.3686 15.124C30.3932 6.76041 23.6576 0 15.3811 0Z" fill="white"/>
</g>
<defs>
<clipPath id="clip0_21_308">
<rect width="30" height="30" fill="white" transform="translate(0.368652)"/>
</clipPath>
</defs>
</svg>
