<svg width="33" height="30" viewBox="0 0 33 30" fill="none" xmlns="http://www.w3.org/2000/svg">
<g clip-path="url(#clip0_21_305)">
<path d="M29.9724 0H2.3897C1.06841 0 0 0.966797 0 2.16211V27.832C0 29.0273 1.06841 30 2.3897 30H29.9724C31.2937 30 32.3684 29.0273 32.3684 27.8379V2.16211C32.3684 0.966797 31.2937 0 29.9724 0ZM9.60305 25.5645H4.79837V11.2441H9.60305V25.5645ZM7.20071 9.29297C5.65815 9.29297 4.41273 8.13867 4.41273 6.71484C4.41273 5.29102 5.65815 4.13672 7.20071 4.13672C8.73695 4.13672 9.98237 5.29102 9.98237 6.71484C9.98237 8.13281 8.73695 9.29297 7.20071 9.29297ZM27.5827 25.5645H22.7843V18.6035C22.7843 16.9453 22.7527 14.8066 20.2872 14.8066C17.79 14.8066 17.4107 16.6172 17.4107 18.4863V25.5645H12.6186V11.2441H17.221V13.2012H17.2842C17.9227 12.0762 19.4906 10.8867 21.8234 10.8867C26.685 10.8867 27.5827 13.8516 27.5827 17.707V25.5645Z" fill="white"/>
</g>
<defs>
<clipPath id="clip0_21_305">
<rect width="32.3684" height="30" fill="white"/>
</clipPath>
</defs>
</svg>
