<svg width="33" height="32" viewBox="0 0 33 32" fill="none" xmlns="http://www.w3.org/2000/svg">
<path d="M0.868408 31.9999L3.11774 23.7826C1.72974 21.3773 1.00041 18.6506 1.00174 15.8546C1.00574 7.11332 8.11906 0 16.859 0C21.1004 0.00133333 25.0817 1.65333 28.0763 4.65066C31.0697 7.64798 32.7177 11.632 32.7163 15.8693C32.7123 24.6119 25.599 31.7253 16.859 31.7253C14.2057 31.7239 11.5911 31.0586 9.27506 29.7946L0.868408 31.9999ZM9.66439 26.9239C11.8991 28.2506 14.0324 29.0453 16.8537 29.0466C24.1177 29.0466 30.035 23.1346 30.039 15.8666C30.0417 8.58398 24.1524 2.67999 16.8644 2.67733C9.59506 2.67733 3.68174 8.58931 3.67907 15.856C3.67774 18.8226 4.54707 21.044 6.00706 23.3679L4.67507 28.2319L9.66439 26.9239ZM24.847 19.6386C24.7484 19.4733 24.4844 19.3746 24.087 19.176C23.691 18.9773 21.743 18.0186 21.379 17.8866C21.0164 17.7546 20.7524 17.688 20.487 18.0853C20.223 18.4813 19.463 19.3746 19.2324 19.6386C19.0017 19.9026 18.7697 19.936 18.3737 19.7373C17.9777 19.5386 16.7004 19.1213 15.187 17.7706C14.0097 16.72 13.2137 15.4226 12.983 15.0253C12.7524 14.6293 12.959 14.4146 13.1564 14.2173C13.335 14.04 13.5524 13.7546 13.751 13.5226C13.9524 13.2933 14.0177 13.128 14.151 12.8626C14.283 12.5986 14.2177 12.3666 14.1177 12.168C14.0177 11.9706 13.2257 10.02 12.8964 9.22665C12.5737 8.45465 12.2471 8.55865 12.0044 8.54665L11.2444 8.53331C10.9804 8.53331 10.5511 8.63198 10.1884 9.02931C9.82572 9.42665 8.80172 10.384 8.80172 12.3346C8.80172 14.2853 10.2217 16.1693 10.4191 16.4333C10.6177 16.6973 13.2124 20.7 17.187 22.416C18.1324 22.824 18.871 23.0679 19.4457 23.2506C20.395 23.5519 21.259 23.5093 21.9417 23.4079C22.703 23.2946 24.2857 22.4493 24.6164 21.524C24.947 20.5973 24.947 19.804 24.847 19.6386Z" fill="white"/>
</svg>
